<?xml version="1.0" standalone="no"?>
<!DOCTYPE svg PUBLIC "-//W3C//DTD SVG 20010904//EN"
 "http://www.w3.org/TR/2001/REC-SVG-20010904/DTD/svg10.dtd">
<svg version="1.0" xmlns="http://www.w3.org/2000/svg"
 width="500.000000pt" height="500.000000pt" viewBox="0 0 500.000000 500.000000"
 preserveAspectRatio="xMidYMid meet">

<g transform="translate(0.000000,500.000000) scale(0.100000,-0.100000)"
fill="#000000" stroke="none">
<path d="M3639 3623 l-163 -128 -61 -140 c-69 -157 -99 -219 -191 -386 -35
-64 -64 -120 -64 -124 0 -14 172 1 181 16 5 8 37 60 71 116 34 56 63 101 64
100 1 -1 5 -61 8 -133 5 -101 11 -140 26 -170 24 -46 25 -66 4 -106 -14 -27
-15 -57 -9 -222 4 -105 9 -194 12 -198 2 -5 74 -8 160 -8 l156 0 -7 188 c-3
103 -9 261 -13 352 -4 91 -7 346 -8 567 0 222 -1 403 -2 403 -1 0 -75 -57
-164 -127z"/>
<path d="M1470 3624 c-58 -64 -108 -121 -112 -128 -6 -11 -23 -228 -32 -416
-3 -58 -8 -157 -11 -220 -3 -63 -8 -158 -10 -210 -11 -238 -16 -318 -21 -362
l-6 -48 86 0 c81 0 86 1 90 23 6 24 22 275 32 482 4 72 9 157 13 190 l6 60 83
-158 c46 -86 86 -157 89 -157 3 0 24 15 47 33 65 52 185 137 194 137 4 0 23
-16 42 -35 18 -19 35 -33 37 -31 2 1 -10 27 -25 57 -197 374 -357 692 -377
749 -9 25 -16 68 -16 97 -1 29 -2 53 -3 53 -1 0 -49 -52 -106 -116z"/>
<path d="M1875 2704 c-96 -68 -135 -106 -135 -130 0 -14 37 -15 328 -9 180 4
329 7 332 7 29 1 30 -5 30 -167 l0 -165 114 0 113 0 7 167 c4 93 9 169 10 170
2 2 79 5 172 8 93 3 186 8 207 10 33 4 37 2 37 -19 0 -13 7 -29 15 -36 24 -20
32 16 9 41 -18 20 -18 20 26 17 36 -2 44 -6 42 -20 -2 -10 0 -18 4 -18 17 0
236 135 242 148 3 8 -3 21 -14 29 -15 12 -52 13 -199 9 -603 -19 -1190 -29
-1214 -21 -12 4 -25 15 -29 25 -6 16 -18 11 -97 -46z"/>
<path d="M2978 2490 c-39 -5 -39 -5 -167 -212 l-23 -38 69 0 68 0 87 130 87
130 -42 -2 c-23 -1 -59 -5 -79 -8z"/>
<path d="M1853 2462 l-62 -3 57 -109 57 -110 188 0 c104 0 187 3 185 8 -1 4
-28 56 -58 115 l-55 108 -125 -3 c-69 -2 -153 -4 -187 -6z"/>
<path d="M1065 2158 c-2 -7 -8 -55 -12 -105 -6 -65 -6 -93 2 -93 6 0 11 10 11
23 1 82 5 120 13 112 5 -6 23 -39 41 -73 l33 -64 20 34 c11 18 33 53 48 78
l29 45 2 -50 c1 -27 2 -62 2 -77 1 -21 6 -28 19 -28 13 0 17 5 13 16 -3 9 -6
56 -6 105 0 49 -4 89 -9 89 -4 0 -30 -37 -55 -81 -26 -45 -51 -77 -56 -73 -4
5 -24 42 -45 82 -20 39 -39 72 -41 72 -3 0 -6 -6 -9 -12z"/>
<path d="M1435 2162 c-53 -18 -85 -60 -85 -115 0 -84 87 -116 154 -56 63 55
55 144 -15 168 -18 6 -32 11 -33 10 -1 -1 -10 -4 -21 -7z m60 -37 c29 -29 34
-88 9 -123 -37 -54 -134 -10 -134 61 0 77 74 114 125 62z"/>
<path d="M1635 2160 c-22 -4 -34 -8 -27 -9 10 -1 12 -21 6 -96 l-7 -95 37 0
c80 0 146 53 146 117 0 39 -37 83 -69 83 -11 0 -25 2 -33 4 -7 1 -31 0 -53 -4z
m100 -35 c28 -27 34 -88 11 -118 -15 -20 -60 -35 -91 -30 -18 3 -20 10 -17 88
l3 85 35 0 c24 0 43 -8 59 -25z"/>
<path d="M1893 2163 c-50 -4 -51 -4 -44 -31 4 -15 7 -60 6 -99 l-1 -73 46 2
c39 1 41 2 10 5 -35 4 -35 4 -32 48 4 42 6 45 32 45 16 0 32 5 36 11 4 7 -5
10 -27 7 -33 -3 -34 -2 -37 35 l-3 37 40 0 c23 0 41 5 41 10 0 6 -3 9 -7 8 -5
-1 -31 -3 -60 -5z"/>
<path d="M2017 2158 c-9 -6 -8 -8 2 -8 11 0 13 -18 9 -95 -5 -82 -3 -96 10
-93 12 2 15 20 13 96 -2 91 -2 92 21 92 49 0 66 -55 26 -83 l-23 -15 47 -48
c30 -31 51 -45 62 -41 12 5 5 16 -31 50 l-46 44 22 30 c37 50 6 87 -68 81 -18
-1 -37 -6 -44 -10z"/>
<path d="M2246 2150 c-11 -49 -11 -190 0 -190 6 0 11 8 11 18 -1 9 0 40 2 67
l2 50 64 -67 c49 -52 65 -63 69 -50 10 35 17 192 9 192 -14 0 -39 -20 -25 -20
8 0 12 -21 12 -72 l0 -72 -51 49 c-28 28 -59 66 -69 85 -18 35 -18 35 -24 10z"/>
<path d="M2554 2158 c-3 -5 11 -8 31 -8 l37 0 -4 -95 c-3 -84 -1 -95 14 -95
20 0 33 17 17 22 -7 2 -9 29 -4 86 l8 82 33 0 c18 0 36 5 39 10 4 7 -24 9 -80
8 -48 -2 -89 -6 -91 -10z"/>
<path d="M2770 2160 c-11 -7 -12 -10 -2 -10 11 0 13 -20 10 -95 -3 -84 -1 -95
14 -95 9 0 20 5 23 10 3 6 1 10 -5 10 -7 0 -10 17 -9 45 l3 45 54 0 54 0 -4
-55 c-2 -46 0 -55 14 -55 20 0 33 17 16 22 -8 3 -9 28 -2 96 8 80 8 92 -6 92
-19 0 -51 -20 -32 -20 7 0 12 -14 12 -35 l0 -36 -51 2 -51 3 4 43 c3 45 -9 55
-42 33z"/>
<path d="M3025 2162 c-5 -4 -10 -51 -10 -105 0 -84 2 -97 17 -97 19 0 33 16
19 22 -6 2 -7 38 -4 86 5 70 8 82 24 82 21 0 49 -26 49 -45 0 -7 -11 -22 -24
-32 l-24 -19 42 -49 c30 -34 47 -47 59 -42 13 5 8 15 -31 51 l-47 45 23 16
c28 21 29 59 0 79 -23 17 -76 21 -93 8z"/>
<path d="M3285 2161 l-50 -6 0 -98 0 -97 45 2 c38 1 40 2 12 5 -25 3 -32 8
-28 20 3 8 6 28 6 44 0 24 4 29 24 29 14 0 28 5 31 10 4 6 -7 10 -24 10 -29 0
-31 3 -31 35 0 33 2 35 34 35 19 0 38 5 41 10 3 6 3 9 -2 8 -4 -1 -30 -4 -58
-7z"/>
<path d="M3650 2161 l-35 -6 0 -98 0 -97 40 0 c22 0 47 5 55 11 12 9 12 10 -3
5 -10 -3 -29 -3 -43 0 -21 5 -24 12 -24 53 0 25 3 63 6 84 6 34 9 37 38 37 74
-1 111 -85 64 -146 -20 -25 -20 -27 -3 -14 35 27 44 44 45 86 0 66 -53 99
-140 85z"/>
<path d="M3910 2163 c-26 -10 -60 -46 -60 -63 0 -18 30 -50 47 -50 13 0 43
-33 43 -49 0 -21 -45 -35 -70 -21 -16 8 -25 9 -33 1 -16 -16 32 -31 63 -19 70
26 77 67 20 103 -23 14 -43 32 -47 41 -8 23 17 45 48 42 16 -1 29 2 29 7 1 12
-19 16 -40 8z"/>
<path d="M3448 2113 c-11 -27 -31 -72 -43 -100 -19 -41 -21 -53 -10 -53 8 0
12 6 10 13 -8 21 29 57 60 60 27 2 31 -2 39 -35 6 -25 15 -38 26 -38 24 0 32
11 16 24 -7 6 -24 48 -36 94 -13 45 -28 82 -32 82 -5 0 -18 -21 -30 -47z m36
-40 c6 -20 4 -23 -19 -23 -22 0 -26 3 -20 18 4 9 10 25 13 36 5 20 14 11 26
-31z"/>
<path d="M1246 1838 c-50 -319 -78 -433 -127 -512 l-30 -49 83 7 c149 12 243
47 373 137 41 28 75 52 75 54 0 1 -21 -2 -47 -6 -69 -11 -172 -11 -216 2 -30
8 -37 14 -32 29 19 59 45 166 59 240 9 47 19 95 22 108 4 21 2 22 -75 22 l-80
0 -5 -32z"/>
<path d="M2112 1863 c2 -5 38 -78 80 -163 43 -85 91 -195 107 -245 l31 -90 0
253 0 252 -111 0 c-61 0 -109 -3 -107 -7z"/>
<path d="M2430 1563 c0 -412 -18 -514 -106 -612 l-45 -50 113 -2 c188 -4 228
0 282 24 42 19 219 137 205 137 -2 0 -40 -7 -84 -15 -44 -8 -120 -14 -168 -15
l-88 0 29 43 c33 46 59 117 67 175 2 20 7 169 10 330 l6 292 -111 0 -110 0 0
-307z"/>
<path d="M3536 1773 c15 -277 10 -336 -31 -429 -14 -31 -25 -59 -25 -61 0 -8
139 7 218 23 110 22 243 68 331 115 79 41 145 87 106 74 -32 -11 -227 -18
-277 -11 l-46 7 16 32 c12 25 16 65 16 187 l0 155 -157 3 -156 3 5 -98z"/>
</g>
</svg>
