<?xml version="1.0" standalone="no"?>
<!DOCTYPE svg PUBLIC "-//W3C//DTD SVG 20010904//EN"
 "http://www.w3.org/TR/2001/REC-SVG-20010904/DTD/svg10.dtd">
<svg version="1.0" xmlns="http://www.w3.org/2000/svg"
 width="425.000000pt" height="122.000000pt" viewBox="0 0 425.000000 122.000000"
 preserveAspectRatio="xMidYMid meet">

<g transform="translate(0.000000,122.000000) scale(0.100000,-0.100000)"
fill="#000000" stroke="none">
<path d="M120 605 l0 -485 2010 0 2010 0 0 485 0 485 -2010 0 -2010 0 0 -485z
m4000 0 l0 -455 -1990 0 -1990 0 0 455 0 455 1990 0 1990 0 0 -455z"/>
<path d="M210 610 l0 -390 990 0 990 0 0 390 0 390 -990 0 -990 0 0 -390z
m645 126 c39 -26 57 -62 57 -115 0 -57 -11 -82 -53 -111 -21 -16 -45 -22 -80
-22 -84 0 -131 47 -132 132 -1 59 21 95 74 123 39 21 96 18 134 -7z m-484 -62
l51 -76 50 76 c33 49 57 76 69 76 18 0 19 -10 19 -130 0 -123 -1 -130 -20
-130 -19 0 -20 7 -20 98 l0 97 -41 -62 c-23 -35 -49 -63 -58 -63 -9 0 -34 28
-56 62 l-40 62 -3 -97 c-2 -77 -6 -97 -17 -97 -12 0 -15 23 -15 130 0 158 7
163 81 54z m800 53 c22 -15 39 -38 49 -65 13 -37 13 -47 0 -84 -22 -61 -56
-82 -146 -86 l-74 -4 0 131 0 131 69 0 c54 0 75 -5 102 -23z m309 8 c0 -12
-14 -15 -65 -15 l-65 0 0 -40 0 -40 60 0 c47 0 60 -3 60 -15 0 -12 -13 -15
-60 -15 l-60 0 0 -45 0 -45 65 0 c51 0 65 -3 65 -15 0 -12 -16 -15 -80 -15
l-80 0 0 130 0 130 80 0 c64 0 80 -3 80 -15z m255 -10 c36 -35 34 -86 -4 -118
l-30 -25 29 -38 c35 -46 36 -54 11 -54 -12 0 -30 17 -48 45 -24 38 -33 45 -60
45 -32 0 -33 -1 -33 -45 0 -33 -4 -45 -15 -45 -13 0 -15 21 -15 130 l0 130 70
0 c62 0 74 -3 95 -25z m222 -71 l68 -97 3 97 c2 76 6 96 17 96 12 0 15 -23 15
-130 0 -106 -3 -130 -14 -130 -8 0 -45 44 -83 98 l-68 97 -3 -97 c-2 -78 -6
-98 -17 -98 -12 0 -15 23 -15 130 0 106 3 130 14 130 8 0 45 -43 83 -96z"/>
<path d="M709 691 c-64 -65 -20 -171 71 -171 58 0 100 42 100 100 0 91 -106
135 -171 71z"/>
<path d="M1040 619 l0 -102 52 5 c66 7 98 39 98 99 0 59 -42 99 -104 99 l-46
0 0 -101z"/>
<path d="M1600 670 l0 -50 49 0 c40 0 53 4 65 22 20 29 20 34 -4 58 -14 14
-33 20 -65 20 l-45 0 0 -50z"/>
<path d="M3894 736 c-34 -15 -44 -33 -44 -75 0 -35 25 -58 81 -74 27 -8 45
-20 47 -30 5 -24 -25 -33 -47 -13 -10 9 -32 16 -50 16 -27 0 -32 -3 -29 -21 5
-35 49 -61 102 -61 58 0 92 21 101 62 10 44 -14 73 -77 96 -32 12 -53 25 -53
34 0 21 44 25 51 6 9 -24 74 -22 74 2 0 51 -95 86 -156 58z"/>
<path d="M2230 705 c0 -34 1 -35 40 -35 l40 0 0 -95 0 -95 35 0 35 0 0 95 0
95 40 0 c39 0 40 1 40 35 l0 35 -115 0 -115 0 0 -35z"/>
<path d="M2500 610 l0 -130 40 0 40 0 0 50 0 50 40 0 40 0 0 -50 0 -50 35 0
35 0 0 130 0 130 -35 0 c-35 0 -35 0 -35 -45 l0 -45 -40 0 -40 0 0 45 0 45
-40 0 -40 0 0 -130z"/>
<path d="M2790 610 l0 -130 35 0 c33 0 35 2 35 35 0 27 4 35 18 35 11 0 25
-14 35 -35 15 -31 21 -35 57 -35 22 0 40 3 40 6 0 4 -9 21 -20 40 l-21 32 21
34 c28 47 26 84 -9 119 -28 27 -34 29 -110 29 l-81 0 0 -130z m138 39 c2 -21
-2 -28 -23 -33 -35 -9 -45 -1 -45 35 0 28 2 30 33 27 26 -2 33 -8 35 -29z"/>
<path d="M3060 610 l0 -130 90 0 90 0 0 30 c0 30 -1 30 -55 30 -48 0 -55 2
-55 20 0 17 7 20 50 20 49 0 50 1 50 30 0 29 -1 30 -50 30 -43 0 -50 3 -50 20
0 18 7 20 55 20 54 0 55 0 55 30 l0 30 -90 0 -90 0 0 -130z"/>
<path d="M3353 723 c-3 -10 -19 -52 -36 -93 -16 -41 -35 -92 -43 -112 l-13
-38 40 0 c32 0 42 4 46 20 4 16 14 20 49 20 33 0 46 -5 54 -20 8 -15 21 -20
49 -20 l39 0 -51 130 -50 130 -39 0 c-28 0 -40 -5 -45 -17z m64 -118 c11 -34
11 -35 -18 -35 -33 0 -32 -2 -18 39 14 40 23 39 36 -4z"/>
<path d="M3570 610 l0 -130 70 0 c116 0 166 33 177 118 7 49 -17 96 -60 122
-24 15 -50 20 -109 20 l-78 0 0 -130z m154 44 c39 -38 7 -104 -51 -104 l-33 0
0 60 0 60 34 0 c19 0 42 -7 50 -16z"/>
</g>
</svg>
