<?xml version="1.0" standalone="no"?>
<!DOCTYPE svg PUBLIC "-//W3C//DTD SVG 20010904//EN"
 "http://www.w3.org/TR/2001/REC-SVG-20010904/DTD/svg10.dtd">
<svg version="1.0" xmlns="http://www.w3.org/2000/svg"
 width="500.000000pt" height="500.000000pt" viewBox="0 0 500.000000 500.000000"
 preserveAspectRatio="xMidYMid meet">

<g transform="translate(0.000000,500.000000) scale(0.100000,-0.100000)"
fill="#000000" stroke="none">
<path d="M1235 3881 c-49 -23 -99 -74 -119 -123 -22 -52 -24 -960 -2 -1012 22
-52 72 -102 126 -125 50 -21 57 -22 524 -19 l473 3 49 30 c30 19 60 49 79 79
l30 49 3 473 c3 467 2 474 -19 524 -23 54 -73 104 -125 126 -27 11 -127 14
-506 14 -439 0 -476 -2 -513 -19z"/>
<path d="M3095 3884 c-300 -73 -515 -371 -490 -679 22 -270 198 -490 460 -577
58 -19 91 -23 190 -22 103 0 132 4 202 28 162 53 297 169 373 321 53 106 70
178 70 298 0 145 -32 252 -111 368 -81 120 -236 226 -384 264 -74 19 -230 18
-310 -1z"/>
<path d="M1271 2390 c-53 -13 -114 -61 -143 -115 l-28 -50 0 -473 c0 -521 -1
-514 63 -580 71 -74 51 -72 582 -72 519 0 517 0 579 58 16 15 39 50 52 77 l24
50 0 455 c0 296 -4 469 -11 494 -16 58 -101 139 -161 154 -54 14 -900 15 -957
2z"/>
<path d="M2780 2391 c-69 -22 -121 -65 -156 -131 -18 -33 -19 -66 -19 -516 l0
-481 30 -48 c17 -27 50 -63 74 -80 l43 -30 491 -3 492 -2 52 30 c39 22 61 44
83 83 l30 52 -2 492 -3 491 -30 43 c-17 24 -53 57 -80 74 l-48 30 -466 2
c-256 1 -477 -2 -491 -6z"/>
</g>
</svg>
